<?xml version="1.0" encoding="utf-8"?>
<!-- Generator: Adobe Illustrator 16.0.0, SVG Export Plug-In . SVG Version: 6.00 Build 0)  -->
<!DOCTYPE svg PUBLIC "-//W3C//DTD SVG 1.1//EN" "http://www.w3.org/Graphics/SVG/1.1/DTD/svg11.dtd">
<svg version="1.1" xmlns="http://www.w3.org/2000/svg" xmlns:xlink="http://www.w3.org/1999/xlink" x="0px" y="0px" width="1400px"
	 height="500px" viewBox="0 0 1400 500" enable-background="new 0 0 1400 500" xml:space="preserve">
<g id="Layer_2">
	<g>
		<path fill="#333333" d="M661.246,237.657c2.211,2.003,3.317,4.79,3.317,8.359c0,3.569-1.073,6.395-3.219,8.475
			s-5.431,3.119-9.853,3.119h-7.62v-22.958h7.883C655.87,234.651,659.034,235.653,661.246,237.657z M660.654,246.114
			c0-5.255-3.011-7.883-9.032-7.883h-3.876v15.732h4.303c2.781,0,4.91-0.661,6.388-1.987
			C659.915,250.652,660.654,248.698,660.654,246.114z"/>
		<path fill="#333333" d="M685.288,250.482h-13.696c0.087,1.271,0.668,2.294,1.741,3.071s2.299,1.166,3.679,1.166
			c2.189,0,3.854-0.69,4.993-2.069l2.102,2.299c-1.884,1.949-4.335,2.924-7.357,2.924c-2.453,0-4.538-0.816-6.257-2.447
			c-1.719-1.631-2.578-3.82-2.578-6.569c0-2.748,0.875-4.932,2.627-6.553c1.751-1.62,3.815-2.431,6.191-2.431
			s4.396,0.718,6.06,2.151c1.664,1.435,2.496,3.411,2.496,5.929V250.482z M671.591,247.592h10.018c0-1.467-0.46-2.595-1.38-3.383
			c-0.919-0.788-2.053-1.182-3.399-1.182s-2.557,0.411-3.629,1.231C672.128,245.08,671.591,246.191,671.591,247.592z"/>
		<path fill="#333333" d="M701.775,252.388c0,1.664-0.603,2.994-1.807,3.991c-1.204,0.996-2.748,1.494-4.631,1.494
			c-1.27,0-2.589-0.23-3.958-0.689c-1.369-0.461-2.579-1.105-3.629-1.938l1.773-2.857c2.037,1.532,4.007,2.299,5.912,2.299
			c0.832,0,1.489-0.191,1.971-0.575c0.481-0.383,0.723-0.869,0.723-1.461c0-0.875-1.161-1.664-3.481-2.365
			c-0.176-0.066-0.307-0.109-0.395-0.131c-3.635-0.985-5.452-2.628-5.452-4.927c0-1.62,0.629-2.917,1.889-3.892
			c1.259-0.974,2.896-1.462,4.91-1.462s3.92,0.591,5.715,1.774l-1.379,2.726c-1.424-0.941-2.968-1.413-4.632-1.413
			c-0.875,0-1.587,0.159-2.134,0.477c-0.548,0.317-0.821,0.794-0.821,1.429c0,0.569,0.284,0.985,0.854,1.248
			c0.394,0.197,0.947,0.383,1.658,0.558c0.712,0.176,1.342,0.351,1.889,0.526c0.548,0.175,1.078,0.373,1.594,0.591
			c0.514,0.219,1.067,0.526,1.658,0.92C701.185,249.497,701.775,250.724,701.775,252.388z"/>
		<path fill="#333333" d="M706.177,236.655c-0.46-0.46-0.69-1.007-0.69-1.642c0-0.635,0.23-1.183,0.69-1.642
			c0.46-0.46,1.007-0.69,1.642-0.69s1.183,0.23,1.643,0.69c0.46,0.459,0.689,1.007,0.689,1.642c0,0.635-0.229,1.182-0.689,1.642
			s-1.008,0.69-1.643,0.69S706.637,237.115,706.177,236.655z M709.625,257.609h-3.679v-17.473h3.679V257.609z"/>
		<path fill="#333333" d="M731.105,240.136v15.241c0,3.087-0.838,5.402-2.513,6.946s-3.826,2.315-6.454,2.315
			s-5.004-0.821-7.127-2.463l1.74-2.793c1.708,1.293,3.433,1.938,5.173,1.938c1.741,0,3.12-0.449,4.139-1.347
			c1.019-0.898,1.527-2.332,1.527-4.303v-2.233c-0.548,1.03-1.33,1.851-2.349,2.464c-1.018,0.613-2.162,0.92-3.432,0.92
			c-2.321,0-4.227-0.811-5.716-2.432c-1.489-1.619-2.233-3.634-2.233-6.043s0.744-4.423,2.233-6.043
			c1.489-1.62,3.389-2.431,5.699-2.431c2.31,0,4.188,0.953,5.633,2.857v-2.595H731.105z M717.475,248.2
			c0,1.435,0.443,2.672,1.33,3.711c0.887,1.04,2.08,1.56,3.58,1.56s2.715-0.503,3.646-1.51c0.931-1.007,1.396-2.261,1.396-3.761
			c0-1.5-0.472-2.77-1.412-3.81c-0.942-1.04-2.157-1.56-3.646-1.56s-2.677,0.537-3.563,1.609
			C717.918,245.512,717.475,246.766,717.475,248.2z"/>
		<path fill="#333333" d="M740.104,248.15v9.459h-3.679v-17.473h3.679v3.186c0.592-1.072,1.407-1.916,2.447-2.529
			c1.04-0.613,2.162-0.92,3.366-0.92c1.971,0,3.563,0.603,4.779,1.807c1.215,1.205,1.822,2.945,1.822,5.222v10.707h-3.678v-9.59
			c0-3.219-1.336-4.828-4.008-4.828c-1.27,0-2.376,0.422-3.317,1.265C740.575,245.299,740.104,246.53,740.104,248.15z"/>
		<path fill="#333333" d="M654.701,263.79c1.199,1.002,1.798,2.546,1.798,4.632c0,2.085-0.612,3.612-1.835,4.581
			c-1.224,0.97-3.1,1.454-5.629,1.454h-3.054v5.049h-2.907v-17.219h5.912C651.597,262.287,653.502,262.789,654.701,263.79z
			 M652.644,270.896c0.583-0.615,0.875-1.519,0.875-2.709c0-1.191-0.369-2.033-1.108-2.525c-0.739-0.492-1.897-0.738-3.473-0.738
			h-2.956v6.896h3.375C650.965,271.82,652.061,271.513,652.644,270.896z"/>
		<path fill="#333333" d="M669.284,268.988c-1.363,0-2.39,0.443-3.079,1.33c-0.69,0.887-1.035,2.077-1.035,3.571v5.616h-2.759
			v-13.104h2.759v2.636c0.443-0.82,1.047-1.494,1.811-2.02s1.572-0.797,2.426-0.813l0.025,2.784
			C669.383,268.988,669.333,268.988,669.284,268.988z"/>
		<path fill="#333333" d="M685.789,277.745c-1.314,1.306-2.956,1.958-4.927,1.958s-3.613-0.652-4.927-1.958
			c-1.314-1.306-1.971-2.903-1.971-4.792c0-1.888,0.656-3.484,1.971-4.791c1.313-1.305,2.956-1.958,4.927-1.958
			s3.612,0.653,4.927,1.958c1.313,1.307,1.97,2.903,1.97,4.791C687.759,274.842,687.102,276.439,685.789,277.745z M677.893,276.045
			c0.78,0.797,1.77,1.195,2.969,1.195c1.198,0,2.188-0.398,2.968-1.195c0.78-0.796,1.17-1.826,1.17-3.092
			c0-1.264-0.39-2.294-1.17-3.091c-0.78-0.796-1.77-1.194-2.968-1.194c-1.199,0-2.189,0.398-2.969,1.194
			c-0.78,0.797-1.17,1.827-1.17,3.091C676.723,274.219,677.113,275.249,677.893,276.045z"/>
		<path fill="#333333" d="M699.582,279.703c-1.822,0-3.391-0.619-4.704-1.859c-1.314-1.24-1.971-2.861-1.971-4.865
			s0.686-3.633,2.057-4.89c1.372-1.257,3.042-1.885,5.013-1.885s3.637,0.682,5.002,2.045l-1.627,1.995
			c-1.133-0.985-2.275-1.479-3.424-1.479c-1.15,0-2.146,0.383-2.992,1.146c-0.848,0.764-1.27,1.748-1.27,2.955
			s0.418,2.23,1.256,3.067s1.869,1.257,3.092,1.257s2.377-0.559,3.461-1.676l1.627,1.773
			C703.508,278.898,701.668,279.703,699.582,279.703z"/>
		<path fill="#333333" d="M723.033,274.16h-10.271c0.065,0.953,0.501,1.721,1.306,2.304c0.804,0.583,1.724,0.874,2.759,0.874
			c1.642,0,2.89-0.517,3.744-1.551l1.576,1.725c-1.412,1.461-3.251,2.191-5.518,2.191c-1.84,0-3.403-0.611-4.692-1.835
			c-1.29-1.224-1.934-2.866-1.934-4.927s0.656-3.699,1.971-4.914c1.313-1.215,2.861-1.823,4.643-1.823
			c1.782,0,3.297,0.538,4.545,1.614c1.248,1.075,1.872,2.558,1.872,4.445V274.16z M712.762,271.993h7.513
			c0-1.101-0.345-1.946-1.034-2.537s-1.54-0.888-2.55-0.888s-1.917,0.309-2.722,0.924
			C713.164,270.108,712.762,270.942,712.762,271.993z"/>
		<path fill="#333333" d="M738.281,275.59c0,1.248-0.451,2.246-1.354,2.992c-0.903,0.748-2.062,1.121-3.474,1.121
			c-0.952,0-1.941-0.172-2.968-0.518c-1.026-0.344-1.934-0.828-2.723-1.453l1.331-2.143c1.526,1.149,3.005,1.725,4.434,1.725
			c0.624,0,1.116-0.145,1.479-0.432c0.36-0.287,0.541-0.652,0.541-1.096c0-0.657-0.87-1.248-2.61-1.773
			c-0.132-0.05-0.23-0.082-0.296-0.1c-2.727-0.738-4.089-1.971-4.089-3.695c0-1.215,0.472-2.188,1.416-2.918
			s2.172-1.097,3.683-1.097s2.939,0.443,4.286,1.33l-1.034,2.045c-1.068-0.706-2.226-1.06-3.474-1.06
			c-0.657,0-1.19,0.119-1.601,0.357c-0.411,0.238-0.616,0.596-0.616,1.072c0,0.427,0.213,0.738,0.641,0.936
			c0.295,0.147,0.71,0.287,1.244,0.418c0.533,0.133,1.005,0.264,1.416,0.395c0.41,0.132,0.809,0.279,1.194,0.443
			s0.801,0.395,1.244,0.689C737.838,273.422,738.281,274.342,738.281,275.59z"/>
		<path fill="#333333" d="M753.628,275.59c0,1.248-0.451,2.246-1.354,2.992c-0.903,0.748-2.062,1.121-3.474,1.121
			c-0.952,0-1.941-0.172-2.968-0.518c-1.026-0.344-1.934-0.828-2.723-1.453l1.331-2.143c1.526,1.149,3.005,1.725,4.434,1.725
			c0.624,0,1.116-0.145,1.479-0.432c0.36-0.287,0.541-0.652,0.541-1.096c0-0.657-0.87-1.248-2.61-1.773
			c-0.132-0.05-0.23-0.082-0.296-0.1c-2.727-0.738-4.089-1.971-4.089-3.695c0-1.215,0.472-2.188,1.416-2.918
			s2.172-1.097,3.683-1.097s2.939,0.443,4.286,1.33l-1.034,2.045c-1.068-0.706-2.226-1.06-3.474-1.06
			c-0.657,0-1.19,0.119-1.601,0.357c-0.411,0.238-0.616,0.596-0.616,1.072c0,0.427,0.213,0.738,0.641,0.936
			c0.295,0.147,0.71,0.287,1.244,0.418c0.533,0.133,1.005,0.264,1.416,0.395c0.41,0.132,0.809,0.279,1.194,0.443
			s0.801,0.395,1.244,0.689C753.185,273.422,753.628,274.342,753.628,275.59z"/>
	</g>
	<g>
		<path fill="#333333" d="M648.163,63.69c1.212,1.098,1.818,2.625,1.818,4.581c0,1.956-0.588,3.504-1.764,4.644
			c-1.177,1.14-2.977,1.71-5.4,1.71h-4.176V62.043h4.32C645.218,62.043,646.951,62.592,648.163,63.69z M647.84,68.325
			c0-2.88-1.65-4.32-4.95-4.32h-2.124v8.622h2.357c1.524,0,2.691-0.363,3.501-1.089C647.435,70.812,647.84,69.741,647.84,68.325z"/>
		<path fill="#333333" d="M657.452,66.939c-0.997,0-1.746,0.324-2.25,0.972c-0.505,0.648-0.757,1.518-0.757,2.61v4.104h-2.016
			v-9.576h2.016v1.926c0.324-0.6,0.766-1.092,1.323-1.476c0.559-0.384,1.149-0.582,1.773-0.594l0.018,2.034
			C657.523,66.939,657.487,66.939,657.452,66.939z"/>
		<path fill="#333333" d="M667.243,74.625h-1.836v-1.278c-0.792,0.948-1.854,1.422-3.186,1.422c-0.996,0-1.821-0.282-2.476-0.846
			c-0.654-0.564-0.98-1.317-0.98-2.259s0.348-1.647,1.044-2.115c0.695-0.468,1.638-0.702,2.826-0.702h2.609v-0.36
			c0-1.271-0.708-1.908-2.124-1.908c-0.888,0-1.812,0.324-2.771,0.972l-0.9-1.26c1.164-0.924,2.484-1.386,3.96-1.386
			c1.128,0,2.049,0.286,2.763,0.855c0.714,0.57,1.071,1.467,1.071,2.691V74.625z M665.228,71.061v-0.81h-2.269
			c-1.452,0-2.178,0.456-2.178,1.368c0,0.468,0.18,0.825,0.54,1.071c0.36,0.246,0.861,0.369,1.503,0.369s1.203-0.18,1.684-0.54
			C664.987,72.159,665.228,71.673,665.228,71.061z"/>
		<path fill="#333333" d="M674.444,74.625h-2.305l-3.312-9.576h2.088l2.376,7.236l2.376-7.236h2.088l2.376,7.236l2.376-7.236h2.088
			l-3.312,9.576h-2.305l-2.268-6.552L674.444,74.625z"/>
		<path fill="#333333" d="M693.793,66.669v4.86c0,0.457,0.119,0.819,0.359,1.089s0.576,0.405,1.008,0.405
			c0.433,0,0.847-0.21,1.242-0.63l0.828,1.422c-0.708,0.636-1.491,0.954-2.349,0.954c-0.858,0-1.591-0.297-2.196-0.891
			c-0.606-0.594-0.909-1.395-0.909-2.403v-4.806h-1.206v-1.62h1.206v-3.006h2.017v3.006h2.52v1.62H693.793z"/>
		<path fill="#333333" d="M700.849,69.441v5.184h-2.016V61.287h2.016v5.508c0.288-0.588,0.724-1.05,1.306-1.386
			s1.209-0.504,1.881-0.504c1.08,0,1.953,0.331,2.619,0.99c0.666,0.66,0.999,1.614,0.999,2.862v5.868h-2.017v-5.256
			c0-1.764-0.731-2.646-2.195-2.646c-0.696,0-1.303,0.231-1.818,0.693C701.106,67.878,700.849,68.553,700.849,69.441z"/>
		<path fill="#333333" d="M719.371,70.719h-7.506c0.048,0.696,0.365,1.257,0.954,1.683c0.588,0.426,1.26,0.639,2.016,0.639
			c1.2,0,2.112-0.378,2.736-1.134l1.151,1.26c-1.032,1.068-2.376,1.602-4.031,1.602c-1.345,0-2.487-0.447-3.43-1.341
			s-1.413-2.094-1.413-3.6s0.48-2.703,1.44-3.591c0.96-0.888,2.091-1.332,3.393-1.332s2.409,0.394,3.321,1.179
			c0.912,0.786,1.368,1.869,1.368,3.249V70.719z M711.865,69.135h5.489c0-0.804-0.252-1.422-0.756-1.854
			c-0.504-0.432-1.125-0.648-1.862-0.648c-0.738,0-1.401,0.225-1.989,0.675C712.159,67.758,711.865,68.367,711.865,69.135z"/>
		<path fill="#333333" d="M731.646,64.905c1.284,0,2.382,0.444,3.294,1.332c0.912,0.888,1.368,2.07,1.368,3.546
			c0,1.476-0.453,2.676-1.359,3.6c-0.906,0.924-1.962,1.386-3.168,1.386s-2.289-0.528-3.249-1.584v4.932h-2.016V65.049h2.016v1.674
			C729.324,65.511,730.362,64.905,731.646,64.905z M728.497,69.855c0,0.912,0.275,1.659,0.827,2.241s1.225,0.873,2.017,0.873
			s1.481-0.288,2.069-0.864s0.883-1.323,0.883-2.241c0-0.918-0.288-1.68-0.864-2.286s-1.267-0.909-2.07-0.909
			s-1.482,0.303-2.034,0.909S728.497,68.943,728.497,69.855z"/>
		<path fill="#333333" d="M746.37,74.625h-1.836v-1.278c-0.792,0.948-1.854,1.422-3.186,1.422c-0.996,0-1.821-0.282-2.476-0.846
			c-0.654-0.564-0.98-1.317-0.98-2.259s0.348-1.647,1.044-2.115c0.695-0.468,1.638-0.702,2.826-0.702h2.609v-0.36
			c0-1.271-0.708-1.908-2.124-1.908c-0.888,0-1.812,0.324-2.771,0.972l-0.9-1.26c1.164-0.924,2.484-1.386,3.96-1.386
			c1.128,0,2.049,0.286,2.763,0.855c0.714,0.57,1.071,1.467,1.071,2.691V74.625z M744.354,71.061v-0.81h-2.269
			c-1.452,0-2.178,0.456-2.178,1.368c0,0.468,0.18,0.825,0.54,1.071c0.36,0.246,0.861,0.369,1.503,0.369s1.203-0.18,1.684-0.54
			C744.114,72.159,744.354,71.673,744.354,71.061z"/>
		<path fill="#333333" d="M754.309,64.905c1.284,0,2.382,0.444,3.294,1.332c0.912,0.888,1.368,2.07,1.368,3.546
			c0,1.476-0.453,2.676-1.359,3.6c-0.906,0.924-1.962,1.386-3.168,1.386s-2.289-0.528-3.249-1.584v4.932h-2.016V65.049h2.016v1.674
			C751.986,65.511,753.024,64.905,754.309,64.905z M751.159,69.855c0,0.912,0.275,1.659,0.827,2.241s1.225,0.873,2.017,0.873
			s1.481-0.288,2.069-0.864s0.883-1.323,0.883-2.241c0-0.918-0.288-1.68-0.864-2.286s-1.267-0.909-2.07-0.909
			s-1.482,0.303-2.034,0.909S751.159,68.943,751.159,69.855z"/>
		<path fill="#333333" d="M770.185,70.719h-7.506c0.048,0.696,0.365,1.257,0.954,1.683c0.588,0.426,1.26,0.639,2.016,0.639
			c1.2,0,2.112-0.378,2.736-1.134l1.151,1.26c-1.032,1.068-2.376,1.602-4.031,1.602c-1.345,0-2.487-0.447-3.43-1.341
			s-1.413-2.094-1.413-3.6s0.48-2.703,1.44-3.591c0.96-0.888,2.091-1.332,3.393-1.332s2.409,0.394,3.321,1.179
			c0.912,0.786,1.368,1.869,1.368,3.249V70.719z M762.679,69.135h5.489c0-0.804-0.252-1.422-0.756-1.854
			c-0.504-0.432-1.125-0.648-1.862-0.648c-0.738,0-1.401,0.225-1.989,0.675C762.973,67.758,762.679,68.367,762.679,69.135z"/>
		<path fill="#333333" d="M777.421,66.939c-0.997,0-1.746,0.324-2.25,0.972c-0.505,0.648-0.757,1.518-0.757,2.61v4.104h-2.016
			v-9.576h2.016v1.926c0.324-0.6,0.766-1.092,1.323-1.476c0.559-0.384,1.149-0.582,1.773-0.594l0.018,2.034
			C777.492,66.939,777.456,66.939,777.421,66.939z"/>
		<path fill="#333333" d="M643.483,86.505c1.284,0,2.382,0.444,3.294,1.332c0.912,0.888,1.368,2.07,1.368,3.546
			c0,1.476-0.453,2.676-1.359,3.6c-0.906,0.924-1.962,1.386-3.168,1.386s-2.289-0.528-3.249-1.584v4.932h-2.016V86.649h2.016v1.674
			C641.161,87.111,642.199,86.505,643.483,86.505z M640.334,91.455c0,0.912,0.275,1.659,0.827,2.241s1.225,0.873,2.017,0.873
			s1.481-0.288,2.069-0.864s0.883-1.323,0.883-2.241c0-0.918-0.288-1.68-0.864-2.286s-1.267-0.909-2.07-0.909
			s-1.482,0.303-2.034,0.909S640.334,90.543,640.334,91.455z"/>
		<path fill="#333333" d="M655.472,88.539c-0.997,0-1.746,0.324-2.25,0.972c-0.505,0.648-0.757,1.518-0.757,2.61v4.104h-2.016
			v-9.576h2.016v1.926c0.324-0.6,0.766-1.092,1.323-1.476c0.559-0.384,1.149-0.582,1.773-0.594l0.018,2.034
			C655.543,88.539,655.507,88.539,655.472,88.539z"/>
		<path fill="#333333" d="M665.425,94.938c-0.96,0.954-2.16,1.431-3.6,1.431c-1.44,0-2.641-0.477-3.601-1.431
			s-1.439-2.121-1.439-3.501c0-1.38,0.479-2.547,1.439-3.501s2.16-1.431,3.601-1.431c1.439,0,2.64,0.477,3.6,1.431
			s1.44,2.121,1.44,3.501C666.865,92.817,666.385,93.984,665.425,94.938z M659.656,93.696c0.569,0.582,1.293,0.873,2.169,0.873
			s1.599-0.291,2.169-0.873c0.569-0.582,0.854-1.335,0.854-2.259c0-0.924-0.285-1.677-0.854-2.259
			c-0.57-0.582-1.293-0.873-2.169-0.873s-1.6,0.291-2.169,0.873c-0.57,0.582-0.855,1.335-0.855,2.259
			C658.801,92.361,659.086,93.114,659.656,93.696z"/>
		<path fill="#333333" d="M671.491,88.269v4.86c0,0.457,0.119,0.819,0.359,1.089s0.576,0.405,1.008,0.405
			c0.433,0,0.847-0.21,1.242-0.63l0.828,1.422c-0.708,0.636-1.491,0.954-2.349,0.954c-0.858,0-1.591-0.297-2.196-0.891
			c-0.606-0.594-0.909-1.395-0.909-2.403v-4.806h-1.206v-1.62h1.206v-3.006h2.017v3.006h2.52v1.62H671.491z"/>
		<path fill="#333333" d="M684.469,94.938c-0.96,0.954-2.16,1.431-3.6,1.431c-1.44,0-2.641-0.477-3.601-1.431
			s-1.439-2.121-1.439-3.501c0-1.38,0.479-2.547,1.439-3.501s2.16-1.431,3.601-1.431c1.439,0,2.64,0.477,3.6,1.431
			s1.44,2.121,1.44,3.501C685.909,92.817,685.429,93.984,684.469,94.938z M678.7,93.696c0.569,0.582,1.293,0.873,2.169,0.873
			s1.599-0.291,2.169-0.873c0.569-0.582,0.854-1.335,0.854-2.259c0-0.924-0.285-1.677-0.854-2.259
			c-0.57-0.582-1.293-0.873-2.169-0.873s-1.6,0.291-2.169,0.873c-0.57,0.582-0.855,1.335-0.855,2.259
			C677.845,92.361,678.13,93.114,678.7,93.696z"/>
		<path fill="#333333" d="M690.536,88.269v4.86c0,0.457,0.119,0.819,0.359,1.089s0.576,0.405,1.008,0.405
			c0.433,0,0.847-0.21,1.242-0.63l0.828,1.422c-0.708,0.636-1.491,0.954-2.349,0.954c-0.858,0-1.591-0.297-2.196-0.891
			c-0.606-0.594-0.909-1.395-0.909-2.403v-4.806h-1.206v-1.62h1.206v-3.006h2.017v3.006h2.52v1.62H690.536z"/>
		<path fill="#333333" d="M696.781,100.041c-0.876,0-1.668-0.318-2.376-0.954l0.918-1.638c0.42,0.396,0.854,0.594,1.305,0.594
			s0.816-0.162,1.099-0.486c0.281-0.324,0.423-0.678,0.423-1.062c0-0.168-1.29-3.45-3.87-9.846h2.16l2.861,7.056l2.862-7.056h2.16
			l-4.645,11.376c-0.275,0.624-0.672,1.116-1.188,1.476C697.975,99.861,697.405,100.041,696.781,100.041z"/>
		<path fill="#333333" d="M711.037,86.505c1.284,0,2.382,0.444,3.294,1.332c0.912,0.888,1.368,2.07,1.368,3.546
			c0,1.476-0.453,2.676-1.359,3.6c-0.906,0.924-1.962,1.386-3.168,1.386s-2.289-0.528-3.249-1.584v4.932h-2.016V86.649h2.016v1.674
			C708.715,87.111,709.753,86.505,711.037,86.505z M707.888,91.455c0,0.912,0.275,1.659,0.827,2.241s1.225,0.873,2.017,0.873
			s1.481-0.288,2.069-0.864s0.883-1.323,0.883-2.241c0-0.918-0.288-1.68-0.864-2.286s-1.267-0.909-2.07-0.909
			s-1.482,0.303-2.034,0.909S707.888,90.543,707.888,91.455z"/>
		<path fill="#333333" d="M726.913,92.319h-7.506c0.048,0.696,0.365,1.257,0.954,1.683c0.588,0.426,1.26,0.639,2.016,0.639
			c1.2,0,2.112-0.378,2.736-1.134l1.151,1.26c-1.032,1.068-2.376,1.602-4.031,1.602c-1.345,0-2.487-0.447-3.43-1.341
			s-1.413-2.094-1.413-3.6s0.48-2.703,1.44-3.591c0.96-0.888,2.091-1.332,3.393-1.332s2.409,0.394,3.321,1.179
			c0.912,0.786,1.368,1.869,1.368,3.249V92.319z M719.407,90.735h5.489c0-0.804-0.252-1.422-0.756-1.854
			c-0.504-0.432-1.125-0.648-1.862-0.648c-0.738,0-1.401,0.225-1.989,0.675C719.701,89.358,719.407,89.967,719.407,90.735z"/>
		<path fill="#333333" d="M735.949,93.363c0,0.912-0.33,1.641-0.99,2.187s-1.506,0.819-2.538,0.819
			c-0.696,0-1.419-0.126-2.169-0.378s-1.413-0.606-1.989-1.062l0.973-1.566c1.115,0.84,2.195,1.26,3.239,1.26
			c0.456,0,0.816-0.105,1.08-0.315s0.396-0.477,0.396-0.801c0-0.48-0.637-0.912-1.908-1.296c-0.097-0.036-0.168-0.06-0.216-0.072
			c-1.992-0.54-2.988-1.44-2.988-2.7c0-0.888,0.345-1.599,1.035-2.133c0.689-0.534,1.587-0.801,2.691-0.801
			c1.104,0,2.147,0.324,3.132,0.972l-0.756,1.494c-0.78-0.516-1.627-0.774-2.538-0.774c-0.48,0-0.87,0.087-1.17,0.261
			c-0.301,0.174-0.45,0.435-0.45,0.783c0,0.312,0.155,0.54,0.468,0.684c0.216,0.108,0.519,0.21,0.909,0.306
			c0.39,0.096,0.734,0.192,1.035,0.288c0.3,0.096,0.591,0.204,0.873,0.324c0.281,0.12,0.585,0.288,0.908,0.504
			C735.625,91.779,735.949,92.451,735.949,93.363z"/>
	</g>
	<g>
		<path fill="#333333" d="M866.484,200.706c0.876,0.732,1.313,1.86,1.313,3.385c0,1.523-0.447,2.64-1.341,3.348
			s-2.265,1.062-4.113,1.062h-2.231v3.69h-2.124v-12.582h4.32C864.216,199.608,865.608,199.974,866.484,200.706z M864.981,205.899
			c0.426-0.45,0.639-1.109,0.639-1.98c0-0.869-0.27-1.484-0.81-1.845c-0.54-0.359-1.387-0.54-2.538-0.54h-2.16v5.04h2.466
			C863.754,206.574,864.555,206.349,864.981,205.899z"/>
		<path fill="#333333" d="M875.034,204.504c-0.997,0-1.746,0.323-2.25,0.972c-0.505,0.647-0.757,1.518-0.757,2.61v4.104h-2.016
			v-9.576h2.016v1.926c0.324-0.6,0.766-1.092,1.323-1.476c0.559-0.384,1.149-0.582,1.773-0.594l0.018,2.034
			C875.105,204.504,875.069,204.504,875.034,204.504z"/>
		<path fill="#333333" d="M884.987,210.903c-0.96,0.954-2.16,1.431-3.6,1.431c-1.44,0-2.641-0.477-3.601-1.431
			s-1.439-2.121-1.439-3.501s0.479-2.547,1.439-3.501s2.16-1.431,3.601-1.431c1.439,0,2.64,0.477,3.6,1.431s1.44,2.121,1.44,3.501
			S885.947,209.949,884.987,210.903z M879.219,209.661c0.569,0.582,1.293,0.873,2.169,0.873s1.599-0.291,2.169-0.873
			c0.569-0.582,0.854-1.335,0.854-2.259s-0.285-1.677-0.854-2.259c-0.57-0.582-1.293-0.873-2.169-0.873s-1.6,0.291-2.169,0.873
			c-0.57,0.582-0.855,1.335-0.855,2.259S878.648,209.079,879.219,209.661z"/>
		<path fill="#333333" d="M892.962,212.333c-1.332,0-2.479-0.452-3.438-1.358s-1.439-2.091-1.439-3.555
			c0-1.465,0.501-2.655,1.503-3.573s2.223-1.377,3.663-1.377c1.439,0,2.657,0.498,3.654,1.494l-1.188,1.458
			c-0.828-0.721-1.662-1.08-2.502-1.08s-1.569,0.278-2.187,0.837c-0.619,0.558-0.928,1.277-0.928,2.16
			c0,0.882,0.307,1.629,0.918,2.24c0.612,0.612,1.365,0.918,2.26,0.918c0.894,0,1.736-0.407,2.528-1.224l1.188,1.296
			C895.83,211.747,894.485,212.333,892.962,212.333z"/>
		<path fill="#333333" d="M907.992,208.284h-7.506c0.048,0.696,0.365,1.258,0.954,1.684c0.588,0.426,1.26,0.639,2.016,0.639
			c1.2,0,2.112-0.378,2.736-1.134l1.151,1.26c-1.032,1.068-2.376,1.602-4.031,1.602c-1.345,0-2.487-0.446-3.43-1.341
			c-0.942-0.894-1.413-2.094-1.413-3.6s0.48-2.703,1.44-3.591c0.96-0.889,2.091-1.332,3.393-1.332s2.409,0.393,3.321,1.179
			s1.368,1.869,1.368,3.249V208.284z M900.486,206.7h5.489c0-0.804-0.252-1.422-0.756-1.854c-0.504-0.433-1.125-0.648-1.862-0.648
			c-0.738,0-1.401,0.226-1.989,0.675C900.78,205.323,900.486,205.932,900.486,206.7z"/>
		<path fill="#333333" d="M919.115,208.284h-7.506c0.048,0.696,0.365,1.258,0.954,1.684c0.588,0.426,1.26,0.639,2.016,0.639
			c1.2,0,2.112-0.378,2.736-1.134l1.151,1.26c-1.032,1.068-2.376,1.602-4.031,1.602c-1.345,0-2.487-0.446-3.43-1.341
			c-0.942-0.894-1.413-2.094-1.413-3.6s0.48-2.703,1.44-3.591c0.96-0.889,2.091-1.332,3.393-1.332s2.409,0.393,3.321,1.179
			s1.368,1.869,1.368,3.249V208.284z M911.609,206.7h5.489c0-0.804-0.252-1.422-0.756-1.854c-0.504-0.433-1.125-0.648-1.862-0.648
			c-0.738,0-1.401,0.226-1.989,0.675C911.903,205.323,911.609,205.932,911.609,206.7z"/>
		<path fill="#333333" d="M922.067,210.966c-0.9-0.912-1.351-2.112-1.351-3.601c0-1.487,0.462-2.676,1.387-3.563
			c0.924-0.889,2.024-1.332,3.303-1.332s2.307,0.54,3.087,1.62v-5.257h2.016v13.356h-2.016v-1.44
			c-0.744,1.057-1.83,1.584-3.258,1.584C924.022,212.333,922.967,211.878,922.067,210.966z M922.733,207.447
			c0,0.918,0.294,1.665,0.882,2.241s1.278,0.864,2.07,0.864s1.464-0.291,2.016-0.873s0.828-1.329,0.828-2.241
			s-0.276-1.674-0.828-2.286s-1.23-0.918-2.034-0.918s-1.494,0.306-2.07,0.918C923.021,205.764,922.733,206.529,922.733,207.447z"/>
		<path fill="#333333" d="M940.842,204.234v4.86c0,0.456,0.119,0.818,0.359,1.089c0.24,0.27,0.576,0.405,1.008,0.405
			c0.433,0,0.847-0.21,1.242-0.631l0.828,1.423c-0.708,0.636-1.491,0.953-2.349,0.953c-0.858,0-1.591-0.297-2.196-0.891
			c-0.606-0.594-0.909-1.395-0.909-2.403v-4.806h-1.206v-1.62h1.206v-3.006h2.017v3.006h2.52v1.62H940.842z"/>
		<path fill="#333333" d="M953.819,210.903c-0.96,0.954-2.16,1.431-3.6,1.431c-1.44,0-2.641-0.477-3.601-1.431
			s-1.439-2.121-1.439-3.501s0.479-2.547,1.439-3.501s2.16-1.431,3.601-1.431c1.439,0,2.64,0.477,3.6,1.431s1.44,2.121,1.44,3.501
			S954.779,209.949,953.819,210.903z M948.051,209.661c0.569,0.582,1.293,0.873,2.169,0.873s1.599-0.291,2.169-0.873
			c0.569-0.582,0.854-1.335,0.854-2.259s-0.285-1.677-0.854-2.259c-0.57-0.582-1.293-0.873-2.169-0.873s-1.6,0.291-2.169,0.873
			c-0.57,0.582-0.855,1.335-0.855,2.259S947.48,209.079,948.051,209.661z"/>
		<path fill="#333333" d="M864.396,229.398v-5.185h2.016v9.576h-2.016v-1.746c-0.324,0.588-0.771,1.05-1.341,1.386
			c-0.57,0.337-1.186,0.504-1.846,0.504c-1.08,0-1.953-0.329-2.619-0.989s-0.999-1.614-0.999-2.862v-5.868h2.017v5.256
			c0,1.765,0.731,2.646,2.195,2.646c0.696,0,1.303-0.231,1.818-0.693S864.396,230.286,864.396,229.398z"/>
		<path fill="#333333" d="M876.15,230.927c0,0.912-0.33,1.642-0.99,2.188s-1.506,0.818-2.538,0.818
			c-0.696,0-1.419-0.126-2.169-0.378s-1.413-0.605-1.989-1.062l0.973-1.566c1.115,0.841,2.195,1.261,3.239,1.261
			c0.456,0,0.816-0.105,1.08-0.315s0.396-0.477,0.396-0.801c0-0.48-0.637-0.912-1.908-1.296c-0.097-0.036-0.168-0.061-0.216-0.072
			c-1.992-0.54-2.988-1.44-2.988-2.7c0-0.888,0.345-1.599,1.035-2.133c0.689-0.534,1.587-0.801,2.691-0.801
			c1.104,0,2.147,0.323,3.132,0.972l-0.756,1.494c-0.78-0.516-1.627-0.774-2.538-0.774c-0.48,0-0.87,0.088-1.17,0.262
			c-0.301,0.174-0.45,0.435-0.45,0.782c0,0.312,0.155,0.54,0.468,0.685c0.216,0.107,0.519,0.21,0.909,0.306
			c0.39,0.097,0.734,0.192,1.035,0.288c0.3,0.097,0.591,0.204,0.873,0.324c0.281,0.12,0.585,0.288,0.908,0.504
			C875.826,229.343,876.15,230.016,876.15,230.927z"/>
		<path fill="#333333" d="M887.347,229.883h-7.506c0.048,0.696,0.365,1.258,0.954,1.684c0.588,0.426,1.26,0.639,2.016,0.639
			c1.2,0,2.112-0.378,2.736-1.134l1.151,1.26c-1.032,1.068-2.376,1.602-4.031,1.602c-1.345,0-2.487-0.446-3.43-1.341
			c-0.942-0.894-1.413-2.094-1.413-3.6s0.48-2.703,1.44-3.591c0.96-0.889,2.091-1.332,3.393-1.332s2.409,0.393,3.321,1.179
			s1.368,1.869,1.368,3.249V229.883z M879.841,228.299h5.489c0-0.804-0.252-1.422-0.756-1.854c-0.504-0.433-1.125-0.648-1.862-0.648
			c-0.738,0-1.401,0.226-1.989,0.675C880.135,226.922,879.841,227.532,879.841,228.299z"/>
		<path fill="#333333" d="M894.582,226.104c-0.997,0-1.746,0.323-2.25,0.972c-0.505,0.647-0.757,1.518-0.757,2.61v4.104h-2.016
			v-9.576h2.016v1.926c0.324-0.6,0.766-1.092,1.323-1.476c0.559-0.384,1.149-0.582,1.773-0.594l0.018,2.034
			C894.653,226.104,894.617,226.104,894.582,226.104z"/>
		<path fill="#333333" d="M904.122,225.833v4.86c0,0.456,0.119,0.818,0.359,1.089c0.24,0.27,0.576,0.405,1.008,0.405
			c0.433,0,0.847-0.21,1.242-0.631l0.828,1.423c-0.708,0.636-1.491,0.953-2.349,0.953c-0.858,0-1.591-0.297-2.196-0.891
			c-0.606-0.594-0.909-1.395-0.909-2.403v-4.806h-1.206v-1.62h1.206v-3.006h2.017v3.006h2.52v1.62H904.122z"/>
		<path fill="#333333" d="M918.071,229.883h-7.506c0.048,0.696,0.365,1.258,0.954,1.684c0.588,0.426,1.26,0.639,2.016,0.639
			c1.2,0,2.112-0.378,2.736-1.134l1.151,1.26c-1.032,1.068-2.376,1.602-4.031,1.602c-1.345,0-2.487-0.446-3.43-1.341
			c-0.942-0.894-1.413-2.094-1.413-3.6s0.48-2.703,1.44-3.591c0.96-0.889,2.091-1.332,3.393-1.332s2.409,0.393,3.321,1.179
			s1.368,1.869,1.368,3.249V229.883z M910.565,228.299h5.489c0-0.804-0.252-1.422-0.756-1.854c-0.504-0.433-1.125-0.648-1.862-0.648
			c-0.738,0-1.401,0.226-1.989,0.675C910.859,226.922,910.565,227.532,910.565,228.299z"/>
		<path fill="#333333" d="M927.107,230.927c0,0.912-0.33,1.642-0.99,2.188s-1.506,0.818-2.538,0.818
			c-0.696,0-1.419-0.126-2.169-0.378s-1.413-0.605-1.989-1.062l0.973-1.566c1.115,0.841,2.195,1.261,3.239,1.261
			c0.456,0,0.816-0.105,1.08-0.315s0.396-0.477,0.396-0.801c0-0.48-0.637-0.912-1.908-1.296c-0.097-0.036-0.168-0.061-0.216-0.072
			c-1.992-0.54-2.988-1.44-2.988-2.7c0-0.888,0.345-1.599,1.035-2.133c0.689-0.534,1.587-0.801,2.691-0.801
			c1.104,0,2.147,0.323,3.132,0.972l-0.756,1.494c-0.78-0.516-1.627-0.774-2.538-0.774c-0.48,0-0.87,0.088-1.17,0.262
			c-0.301,0.174-0.45,0.435-0.45,0.782c0,0.312,0.155,0.54,0.468,0.685c0.216,0.107,0.519,0.21,0.909,0.306
			c0.39,0.097,0.734,0.192,1.035,0.288c0.3,0.097,0.591,0.204,0.873,0.324c0.281,0.12,0.585,0.288,0.908,0.504
			C926.783,229.343,927.107,230.016,927.107,230.927z"/>
		<path fill="#333333" d="M931.878,225.833v4.86c0,0.456,0.119,0.818,0.359,1.089c0.24,0.27,0.576,0.405,1.008,0.405
			c0.433,0,0.847-0.21,1.242-0.631l0.828,1.423c-0.708,0.636-1.491,0.953-2.349,0.953c-0.858,0-1.591-0.297-2.196-0.891
			c-0.606-0.594-0.909-1.395-0.909-2.403v-4.806h-1.206v-1.62h1.206v-3.006h2.017v3.006h2.52v1.62H931.878z"/>
		<path fill="#333333" d="M937.043,222.305c-0.252-0.252-0.378-0.552-0.378-0.899s0.126-0.648,0.378-0.9s0.552-0.378,0.9-0.378
			c0.348,0,0.647,0.126,0.899,0.378s0.378,0.553,0.378,0.9s-0.126,0.647-0.378,0.899s-0.552,0.378-0.899,0.378
			C937.595,222.683,937.295,222.557,937.043,222.305z M938.933,233.79h-2.016v-9.576h2.016V233.79z"/>
		<path fill="#333333" d="M943.865,228.606v5.184h-2.016v-9.576h2.016v1.746c0.324-0.588,0.771-1.05,1.342-1.386
			c0.569-0.336,1.185-0.504,1.845-0.504c1.08,0,1.953,0.33,2.619,0.989c0.666,0.66,0.999,1.614,0.999,2.862v5.868h-2.017v-5.256
			c0-1.764-0.731-2.646-2.195-2.646c-0.696,0-1.303,0.231-1.818,0.693C944.123,227.042,943.865,227.717,943.865,228.606z"/>
		<path fill="#333333" d="M962.334,224.213v8.353c0,1.691-0.459,2.961-1.378,3.807c-0.918,0.846-2.097,1.269-3.536,1.269
			c-1.44,0-2.742-0.449-3.906-1.35l0.954-1.53c0.936,0.708,1.881,1.062,2.835,1.062s1.71-0.246,2.268-0.738
			c0.559-0.492,0.837-1.278,0.837-2.357v-1.225c-0.3,0.564-0.729,1.015-1.287,1.351c-0.558,0.336-1.185,0.504-1.881,0.504
			c-1.271,0-2.315-0.444-3.132-1.332c-0.816-0.889-1.224-1.992-1.224-3.312c0-1.319,0.407-2.424,1.224-3.312
			c0.816-0.889,1.856-1.332,3.123-1.332c1.266,0,2.295,0.521,3.087,1.565v-1.422H962.334z M954.863,228.632
			c0,0.786,0.243,1.465,0.729,2.034c0.485,0.57,1.14,0.855,1.962,0.855c0.821,0,1.487-0.276,1.998-0.828
			c0.51-0.552,0.765-1.239,0.765-2.062c0-0.821-0.258-1.518-0.773-2.088c-0.517-0.569-1.183-0.854-1.998-0.854
			c-0.816,0-1.468,0.294-1.953,0.882C955.106,227.16,954.863,227.847,954.863,228.632z"/>
	</g>
	<g>
		<path fill="#333333" d="M759.027,408.288l-1.26,2.862H755.5l5.543-12.582h2.269l5.544,12.582h-2.268l-1.26-2.862H759.027z
			 M764.463,406.326l-2.285-5.184l-2.286,5.184H764.463z"/>
		<path fill="#333333" d="M772.33,405.967v5.184h-2.017v-9.576h2.017v1.746c0.323-0.588,0.771-1.05,1.34-1.386
			c0.57-0.336,1.186-0.504,1.846-0.504c1.08,0,1.953,0.33,2.619,0.989c0.666,0.66,0.998,1.614,0.998,2.862v5.868h-2.016v-5.256
			c0-1.764-0.732-2.646-2.195-2.646c-0.696,0-1.303,0.231-1.818,0.693S772.33,405.078,772.33,405.967z"/>
		<path fill="#333333" d="M789.699,411.15h-1.836v-1.278c-0.792,0.948-1.854,1.422-3.186,1.422c-0.996,0-1.821-0.281-2.475-0.846
			c-0.654-0.563-0.982-1.316-0.982-2.259s0.349-1.647,1.045-2.115c0.695-0.468,1.638-0.702,2.826-0.702h2.609v-0.359
			c0-1.272-0.708-1.908-2.123-1.908c-0.889,0-1.812,0.324-2.773,0.972l-0.899-1.26c1.164-0.924,2.483-1.386,3.96-1.386
			c1.128,0,2.049,0.285,2.764,0.854c0.713,0.57,1.07,1.467,1.07,2.691V411.15z M787.684,407.586v-0.81h-2.268
			c-1.453,0-2.179,0.456-2.179,1.368c0,0.468,0.181,0.825,0.54,1.071s0.861,0.368,1.503,0.368s1.203-0.18,1.683-0.54
			C787.443,408.685,787.684,408.198,787.684,407.586z"/>
		<path fill="#333333" d="M794.523,411.15h-2.017v-13.356h2.017V411.15z"/>
		<path fill="#333333" d="M798.645,414.967c-0.875,0-1.668-0.318-2.375-0.954l0.918-1.639c0.42,0.396,0.854,0.595,1.305,0.595
			c0.449,0,0.816-0.162,1.098-0.486s0.424-0.678,0.424-1.062c0-0.168-1.291-3.449-3.871-9.846h2.16l2.862,7.057l2.862-7.057h2.16
			l-4.645,11.376c-0.276,0.624-0.672,1.116-1.188,1.477C799.839,414.786,799.269,414.967,798.645,414.967z"/>
		<path fill="#333333" d="M814.484,408.288c0,0.912-0.33,1.642-0.99,2.188s-1.506,0.818-2.537,0.818c-0.697,0-1.42-0.126-2.17-0.378
			s-1.412-0.605-1.988-1.062l0.972-1.566c1.116,0.841,2.196,1.261,3.24,1.261c0.456,0,0.815-0.105,1.08-0.315
			c0.264-0.21,0.396-0.477,0.396-0.801c0-0.48-0.636-0.912-1.908-1.296c-0.096-0.036-0.168-0.061-0.215-0.072
			c-1.992-0.54-2.988-1.44-2.988-2.7c0-0.888,0.344-1.599,1.035-2.133c0.689-0.534,1.586-0.801,2.69-0.801s2.147,0.323,3.132,0.972
			l-0.756,1.494c-0.78-0.516-1.626-0.774-2.538-0.774c-0.479,0-0.87,0.088-1.17,0.262s-0.45,0.435-0.45,0.782
			c0,0.312,0.156,0.54,0.469,0.685c0.215,0.107,0.519,0.21,0.908,0.306c0.391,0.097,0.735,0.192,1.035,0.288
			c0.3,0.097,0.591,0.204,0.873,0.324c0.281,0.12,0.585,0.288,0.909,0.504C814.16,406.704,814.484,407.377,814.484,408.288z"/>
		<path fill="#333333" d="M825.681,407.244h-7.507c0.049,0.696,0.367,1.258,0.955,1.684s1.26,0.639,2.016,0.639
			c1.199,0,2.111-0.378,2.736-1.134l1.152,1.26c-1.033,1.068-2.377,1.602-4.033,1.602c-1.344,0-2.486-0.446-3.429-1.341
			c-0.942-0.894-1.413-2.094-1.413-3.6s0.48-2.703,1.44-3.591c0.96-0.889,2.091-1.332,3.394-1.332c1.301,0,2.408,0.393,3.32,1.179
			s1.368,1.869,1.368,3.249V407.244z M818.174,405.66h5.49c0-0.804-0.252-1.422-0.756-1.854c-0.504-0.433-1.125-0.648-1.863-0.648
			c-0.737,0-1.4,0.226-1.988,0.675C818.469,404.283,818.174,404.893,818.174,405.66z"/>
		<path fill="#333333" d="M835.311,403.194v4.86c0,0.456,0.119,0.818,0.359,1.089c0.24,0.27,0.576,0.405,1.008,0.405
			c0.433,0,0.846-0.21,1.242-0.631l0.828,1.423c-0.708,0.636-1.491,0.953-2.35,0.953c-0.857,0-1.59-0.297-2.195-0.891
			s-0.909-1.395-0.909-2.403v-4.806h-1.206v-1.62h1.206v-3.006h2.017v3.006h2.52v1.62H835.311z"/>
		<path fill="#333333" d="M842.367,405.967v5.184h-2.017v-13.338h2.017v5.508c0.287-0.588,0.723-1.05,1.305-1.386
			s1.209-0.504,1.881-0.504c1.08,0,1.953,0.33,2.619,0.989c0.666,0.66,0.998,1.614,0.998,2.862v5.868h-2.016v-5.256
			c0-1.764-0.732-2.646-2.195-2.646c-0.696,0-1.303,0.231-1.818,0.693S842.367,405.078,842.367,405.967z"/>
		<path fill="#333333" d="M860.889,407.244h-7.506c0.047,0.696,0.365,1.258,0.953,1.684s1.261,0.639,2.017,0.639
			c1.2,0,2.112-0.378,2.736-1.134l1.151,1.26c-1.032,1.068-2.376,1.602-4.031,1.602c-1.345,0-2.488-0.446-3.43-1.341
			c-0.941-0.894-1.412-2.094-1.412-3.6s0.479-2.703,1.439-3.591c0.96-0.889,2.091-1.332,3.393-1.332s2.409,0.393,3.321,1.179
			s1.368,1.869,1.368,3.249V407.244z M853.383,405.66h5.489c0-0.804-0.252-1.422-0.756-1.854c-0.504-0.433-1.125-0.648-1.862-0.648
			c-0.738,0-1.401,0.226-1.989,0.675C853.676,404.283,853.383,404.893,853.383,405.66z"/>
		<path fill="#333333" d="M761.979,425.064c-0.996,0-1.746,0.323-2.25,0.972c-0.504,0.647-0.756,1.518-0.756,2.61v4.104h-2.017
			v-9.576h2.017v1.926c0.323-0.6,0.765-1.092,1.323-1.476c0.558-0.384,1.148-0.582,1.772-0.594l0.019,2.034
			C762.051,425.064,762.016,425.064,761.979,425.064z"/>
		<path fill="#333333" d="M773.014,428.844h-7.506c0.047,0.696,0.365,1.258,0.953,1.684s1.261,0.639,2.017,0.639
			c1.2,0,2.112-0.378,2.735-1.134l1.152,1.26c-1.031,1.068-2.375,1.602-4.031,1.602c-1.345,0-2.488-0.446-3.43-1.341
			c-0.941-0.894-1.412-2.094-1.412-3.6s0.479-2.703,1.439-3.591c0.96-0.889,2.091-1.332,3.393-1.332
			c1.303,0,2.409,0.393,3.321,1.179c0.911,0.786,1.368,1.869,1.368,3.249V428.844z M765.508,427.26h5.49
			c0-0.804-0.252-1.422-0.756-1.854c-0.505-0.433-1.125-0.648-1.863-0.648s-1.401,0.226-1.989,0.675
			C765.801,425.883,765.508,426.492,765.508,427.26z"/>
		<path fill="#333333" d="M782.049,429.888c0,0.912-0.33,1.642-0.99,2.188s-1.506,0.818-2.537,0.818c-0.697,0-1.42-0.126-2.17-0.378
			s-1.412-0.605-1.988-1.062l0.972-1.566c1.116,0.841,2.196,1.261,3.24,1.261c0.456,0,0.815-0.105,1.08-0.315
			c0.264-0.21,0.396-0.477,0.396-0.801c0-0.48-0.636-0.912-1.908-1.296c-0.096-0.036-0.168-0.061-0.215-0.072
			c-1.992-0.54-2.988-1.44-2.988-2.7c0-0.888,0.344-1.599,1.035-2.133c0.689-0.534,1.586-0.801,2.69-0.801s2.147,0.323,3.132,0.972
			l-0.756,1.494c-0.78-0.516-1.626-0.774-2.538-0.774c-0.479,0-0.87,0.088-1.17,0.262s-0.45,0.435-0.45,0.782
			c0,0.312,0.156,0.54,0.469,0.685c0.215,0.107,0.519,0.21,0.908,0.306c0.391,0.097,0.735,0.192,1.035,0.288
			c0.3,0.097,0.591,0.204,0.873,0.324c0.281,0.12,0.585,0.288,0.909,0.504C781.725,428.304,782.049,428.977,782.049,429.888z"/>
		<path fill="#333333" d="M791.031,428.358v-5.185h2.016v9.576h-2.016v-1.746c-0.324,0.588-0.771,1.05-1.342,1.386
			c-0.57,0.337-1.185,0.504-1.845,0.504c-1.079,0-1.952-0.329-2.618-0.989s-1-1.614-1-2.862v-5.868h2.017v5.256
			c0,1.765,0.731,2.646,2.196,2.646c0.695,0,1.301-0.231,1.817-0.693S791.031,429.246,791.031,428.358z"/>
		<path fill="#333333" d="M797.979,432.75h-2.016v-13.356h2.016V432.75z"/>
		<path fill="#333333" d="M803.379,424.794v4.86c0,0.456,0.12,0.818,0.359,1.089c0.24,0.27,0.576,0.405,1.009,0.405
			s0.846-0.21,1.241-0.631l0.828,1.423c-0.707,0.636-1.49,0.953-2.349,0.953s-1.59-0.297-2.196-0.891
			c-0.605-0.594-0.908-1.395-0.908-2.403v-4.806h-1.206v-1.62h1.206v-3.006h2.016v3.006h2.52v1.62H803.379z"/>
		<path fill="#333333" d="M815.24,429.888c0,0.912-0.33,1.642-0.989,2.188c-0.66,0.546-1.507,0.818-2.538,0.818
			c-0.696,0-1.419-0.126-2.169-0.378s-1.413-0.605-1.989-1.062l0.973-1.566c1.115,0.841,2.195,1.261,3.24,1.261
			c0.455,0,0.815-0.105,1.08-0.315c0.264-0.21,0.396-0.477,0.396-0.801c0-0.48-0.636-0.912-1.908-1.296
			c-0.097-0.036-0.168-0.061-0.216-0.072c-1.992-0.54-2.988-1.44-2.988-2.7c0-0.888,0.345-1.599,1.035-2.133
			c0.689-0.534,1.587-0.801,2.691-0.801c1.104,0,2.147,0.323,3.131,0.972l-0.756,1.494c-0.779-0.516-1.625-0.774-2.537-0.774
			c-0.48,0-0.871,0.088-1.17,0.262c-0.301,0.174-0.451,0.435-0.451,0.782c0,0.312,0.156,0.54,0.469,0.685
			c0.216,0.107,0.52,0.21,0.909,0.306c0.39,0.097,0.735,0.192,1.034,0.288c0.301,0.097,0.592,0.204,0.873,0.324
			c0.282,0.12,0.586,0.288,0.91,0.504C814.917,428.304,815.24,428.977,815.24,429.888z"/>
	</g>
	<g>
		<path fill="#333333" d="M515.864,398.568h2.124v12.582h-2.124V398.568z"/>
		<path fill="#333333" d="M523.208,405.967v5.184h-2.016v-9.576h2.016v1.746c0.288-0.588,0.723-1.05,1.305-1.386
			s1.209-0.505,1.881-0.505c1.512,0,2.538,0.625,3.078,1.873c0.948-1.248,2.13-1.873,3.546-1.873c1.08,0,1.953,0.331,2.619,0.99
			c0.666,0.66,0.999,1.615,0.999,2.862v5.868h-2.016v-5.256c0-1.764-0.732-2.646-2.196-2.646c-0.684,0-1.281,0.219-1.791,0.657
			c-0.51,0.438-0.777,1.077-0.801,1.917v5.328h-2.016v-5.256c0-0.912-0.162-1.581-0.486-2.008c-0.324-0.426-0.834-0.639-1.53-0.639
			s-1.302,0.231-1.818,0.693C523.465,404.403,523.208,405.078,523.208,405.967z"/>
		<path fill="#333333" d="M544.573,401.43c1.284,0,2.382,0.445,3.294,1.332c0.912,0.889,1.368,2.07,1.368,3.547
			c0,1.476-0.453,2.676-1.359,3.6c-0.906,0.925-1.962,1.386-3.168,1.386s-2.289-0.527-3.249-1.583v4.932h-2.016v-13.068h2.016v1.674
			C542.251,402.037,543.289,401.43,544.573,401.43z M541.423,406.381c0,0.912,0.276,1.658,0.828,2.24
			c0.552,0.582,1.224,0.873,2.016,0.873s1.481-0.287,2.07-0.863c0.588-0.576,0.882-1.323,0.882-2.242
			c0-0.918-0.288-1.68-0.864-2.285c-0.576-0.605-1.266-0.909-2.07-0.909c-0.804,0-1.482,0.304-2.034,0.909
			C541.699,404.709,541.423,405.469,541.423,406.381z"/>
		<path fill="#333333" d="M553.556,411.15h-2.016v-13.355h2.016V411.15z"/>
		<path fill="#333333" d="M565.381,407.244h-7.506c0.048,0.696,0.366,1.258,0.954,1.684s1.26,0.639,2.016,0.639
			c1.2,0,2.112-0.378,2.736-1.134l1.152,1.26c-1.032,1.068-2.376,1.602-4.032,1.602c-1.344,0-2.487-0.446-3.429-1.341
			c-0.942-0.894-1.413-2.094-1.413-3.6s0.479-2.703,1.44-3.592c0.96-0.887,2.091-1.332,3.393-1.332c1.302,0,2.409,0.395,3.321,1.18
			c0.912,0.786,1.368,1.869,1.368,3.249V407.244z M557.875,405.66h5.49c0-0.804-0.252-1.422-0.756-1.854
			c-0.504-0.432-1.125-0.648-1.863-0.648c-0.738,0-1.401,0.225-1.989,0.676C558.169,404.283,557.875,404.893,557.875,405.66z"/>
		<path fill="#333333" d="M569.611,405.967v5.184h-2.016v-9.576h2.016v1.746c0.288-0.588,0.723-1.05,1.305-1.386
			s1.209-0.505,1.881-0.505c1.512,0,2.538,0.625,3.078,1.873c0.948-1.248,2.13-1.873,3.546-1.873c1.08,0,1.953,0.331,2.619,0.99
			c0.666,0.66,0.999,1.615,0.999,2.862v5.868h-2.016v-5.256c0-1.764-0.732-2.646-2.196-2.646c-0.684,0-1.281,0.219-1.791,0.657
			c-0.51,0.438-0.777,1.077-0.801,1.917v5.328h-2.016v-5.256c0-0.912-0.162-1.581-0.486-2.008c-0.324-0.426-0.834-0.639-1.53-0.639
			s-1.302,0.231-1.818,0.693C569.869,404.403,569.611,405.078,569.611,405.967z"/>
		<path fill="#333333" d="M594.757,407.244h-7.506c0.048,0.696,0.366,1.258,0.954,1.684s1.26,0.639,2.016,0.639
			c1.2,0,2.112-0.378,2.736-1.134l1.152,1.26c-1.032,1.068-2.376,1.602-4.032,1.602c-1.344,0-2.487-0.446-3.429-1.341
			c-0.942-0.894-1.413-2.094-1.413-3.6s0.479-2.703,1.44-3.592c0.96-0.887,2.091-1.332,3.393-1.332c1.302,0,2.409,0.395,3.321,1.18
			c0.912,0.786,1.368,1.869,1.368,3.249V407.244z M587.251,405.66h5.49c0-0.804-0.252-1.422-0.756-1.854
			c-0.504-0.432-1.125-0.648-1.863-0.648c-0.738,0-1.401,0.225-1.989,0.676C587.545,404.283,587.251,404.893,587.251,405.66z"/>
		<path fill="#333333" d="M598.987,405.967v5.184h-2.016v-9.576h2.016v1.746c0.324-0.588,0.771-1.05,1.341-1.386
			s1.185-0.505,1.845-0.505c1.08,0,1.953,0.331,2.619,0.99c0.666,0.66,0.999,1.615,0.999,2.862v5.868h-2.016v-5.256
			c0-1.764-0.732-2.646-2.196-2.646c-0.696,0-1.302,0.231-1.818,0.693C599.245,404.403,598.987,405.078,598.987,405.967z"/>
		<path fill="#333333" d="M610.957,403.194v4.86c0,0.456,0.12,0.818,0.36,1.089c0.24,0.271,0.576,0.405,1.008,0.405
			s0.846-0.211,1.242-0.631l0.828,1.423c-0.708,0.636-1.491,0.953-2.349,0.953s-1.59-0.297-2.196-0.891s-0.909-1.396-0.909-2.403
			v-4.806h-1.206v-1.62h1.206v-3.006h2.016v3.006h2.52v1.62H610.957z"/>
		<path fill="#333333" d="M625.411,411.15h-2.304l-3.312-9.576h2.088l2.376,7.236l2.376-7.236h2.088l2.376,7.236l2.376-7.236h2.088
			l-3.312,9.576h-2.304l-2.268-6.552L625.411,411.15z"/>
		<path fill="#333333" d="M639.361,405.967v5.184h-2.016v-13.338h2.016v5.508c0.288-0.588,0.723-1.05,1.305-1.386
			s1.209-0.505,1.881-0.505c1.08,0,1.953,0.331,2.619,0.99c0.666,0.66,0.999,1.615,0.999,2.862v5.868h-2.016v-5.256
			c0-1.764-0.732-2.646-2.196-2.646c-0.696,0-1.302,0.231-1.818,0.693C639.619,404.403,639.361,405.078,639.361,405.967z"/>
		<path fill="#333333" d="M656.73,411.15h-1.836v-1.277c-0.792,0.947-1.854,1.421-3.186,1.421c-0.996,0-1.821-0.281-2.475-0.846
			c-0.654-0.563-0.981-1.317-0.981-2.259s0.348-1.646,1.044-2.115c0.696-0.468,1.638-0.701,2.826-0.701h2.61v-0.361
			c0-1.271-0.708-1.907-2.124-1.907c-0.888,0-1.812,0.323-2.772,0.972l-0.9-1.26c1.164-0.924,2.484-1.387,3.96-1.387
			c1.128,0,2.049,0.286,2.763,0.855c0.714,0.57,1.071,1.467,1.071,2.691V411.15z M654.715,407.586v-0.81h-2.268
			c-1.452,0-2.178,0.456-2.178,1.368c0,0.468,0.18,0.825,0.54,1.07c0.36,0.246,0.861,0.369,1.503,0.369s1.203-0.18,1.683-0.539
			C654.475,408.685,654.715,408.198,654.715,407.586z"/>
		<path fill="#333333" d="M661.914,403.194v4.86c0,0.456,0.12,0.818,0.36,1.089c0.24,0.271,0.576,0.405,1.008,0.405
			s0.846-0.211,1.242-0.631l0.828,1.423c-0.708,0.636-1.491,0.953-2.349,0.953s-1.59-0.297-2.196-0.891s-0.909-1.396-0.909-2.403
			v-4.806h-1.206v-1.62h1.206v-3.006h2.016v3.006h2.52v1.62H661.914z"/>
		<path fill="#333333" d="M520.058,432.75h-2.304l-3.312-9.576h2.088l2.376,7.236l2.376-7.236h2.088l2.376,7.236l2.376-7.236h2.088
			l-3.312,9.576h-2.304l-2.268-6.552L520.058,432.75z"/>
		<path fill="#333333" d="M539.875,431.463c-0.96,0.954-2.16,1.431-3.6,1.431s-2.64-0.477-3.6-1.431
			c-0.96-0.954-1.44-2.121-1.44-3.501s0.479-2.547,1.44-3.501c0.96-0.954,2.16-1.431,3.6-1.431s2.64,0.477,3.6,1.431
			s1.44,2.121,1.44,3.501S540.835,430.509,539.875,431.463z M534.107,430.221c0.57,0.582,1.292,0.873,2.169,0.873
			c0.875,0,1.599-0.291,2.169-0.873c0.57-0.582,0.855-1.335,0.855-2.259s-0.285-1.677-0.855-2.259
			c-0.57-0.582-1.293-0.873-2.169-0.873c-0.876,0-1.599,0.291-2.169,0.873c-0.57,0.582-0.855,1.335-0.855,2.259
			S533.537,429.639,534.107,430.221z"/>
		<path fill="#333333" d="M548.624,425.064c-0.996,0-1.746,0.323-2.25,0.972c-0.504,0.647-0.756,1.518-0.756,2.61v4.104h-2.016
			v-9.576h2.016v1.926c0.324-0.6,0.765-1.092,1.323-1.476s1.149-0.582,1.773-0.594l0.018,2.034
			C548.695,425.064,548.66,425.064,548.624,425.064z"/>
		<path fill="#333333" d="M552.763,432.75h-2.016v-13.356h2.016v7.849l3.888-4.068h2.592l-3.636,3.798l3.906,5.778h-2.448
			l-2.844-4.194l-1.458,1.477V432.75z"/>
		<path fill="#333333" d="M570.115,428.844h-7.506c0.048,0.696,0.366,1.258,0.954,1.684s1.26,0.639,2.016,0.639
			c1.2,0,2.112-0.378,2.736-1.134l1.152,1.26c-1.032,1.068-2.376,1.602-4.032,1.602c-1.344,0-2.487-0.446-3.429-1.341
			c-0.942-0.894-1.413-2.094-1.413-3.6s0.479-2.703,1.44-3.591c0.96-0.889,2.091-1.332,3.393-1.332c1.302,0,2.409,0.393,3.321,1.179
			c0.912,0.786,1.368,1.869,1.368,3.249V428.844z M562.609,427.26h5.49c0-0.804-0.252-1.422-0.756-1.854
			c-0.504-0.433-1.125-0.648-1.863-0.648c-0.738,0-1.401,0.226-1.989,0.675C562.903,425.883,562.609,426.492,562.609,427.26z"/>
		<path fill="#333333" d="M573.067,431.526c-0.9-0.912-1.35-2.112-1.35-3.601c0-1.487,0.461-2.676,1.386-3.563
			c0.924-0.889,2.025-1.332,3.303-1.332c1.278,0,2.307,0.54,3.087,1.62v-5.257h2.016v13.356h-2.016v-1.44
			c-0.744,1.057-1.83,1.584-3.258,1.584C575.023,432.894,573.967,432.438,573.067,431.526z M573.733,428.007
			c0,0.918,0.294,1.665,0.882,2.241c0.588,0.576,1.278,0.864,2.07,0.864s1.464-0.291,2.016-0.873
			c0.552-0.582,0.828-1.329,0.828-2.241s-0.276-1.674-0.828-2.286c-0.552-0.612-1.23-0.918-2.034-0.918
			c-0.804,0-1.494,0.306-2.07,0.918C574.021,426.324,573.733,427.089,573.733,428.007z"/>
	</g>
	<g>
		<path fill="#333333" d="M434.533,209.328l-1.26,2.862h-2.268l5.544-12.582h2.268l5.544,12.582h-2.268l-1.26-2.862H434.533z
			 M439.969,207.366l-2.286-5.184l-2.286,5.184H439.969z"/>
		<path fill="#333333" d="M446.557,210.966c-0.9-0.912-1.35-2.112-1.35-3.6c0-1.488,0.461-2.676,1.386-3.564
			c0.924-0.888,2.025-1.332,3.303-1.332c1.278,0,2.307,0.54,3.087,1.62v-5.256H455v13.356h-2.016v-1.44
			c-0.744,1.056-1.83,1.584-3.258,1.584C448.513,212.334,447.458,211.878,446.557,210.966z M447.223,207.447
			c0,0.918,0.294,1.665,0.882,2.241c0.588,0.576,1.278,0.864,2.07,0.864s1.464-0.291,2.016-0.873
			c0.552-0.582,0.828-1.329,0.828-2.241c0-0.912-0.276-1.674-0.828-2.286c-0.552-0.612-1.23-0.918-2.034-0.918
			c-0.804,0-1.494,0.306-2.07,0.918C447.511,205.764,447.223,206.529,447.223,207.447z"/>
		<path fill="#333333" d="M457.915,212.64v-10.026h2.016v10.098c0,1.008-0.303,1.809-0.909,2.403
			c-0.606,0.594-1.338,0.891-2.196,0.891s-1.641-0.318-2.349-0.954l0.936-1.512c0.408,0.396,0.819,0.594,1.233,0.594
			s0.729-0.132,0.945-0.396C457.807,213.474,457.915,213.108,457.915,212.64z M458.005,200.706c-0.252-0.252-0.378-0.552-0.378-0.9
			s0.126-0.648,0.378-0.9s0.552-0.378,0.9-0.378c0.348,0,0.648,0.126,0.9,0.378s0.378,0.552,0.378,0.9s-0.126,0.648-0.378,0.9
			s-0.552,0.378-0.9,0.378C458.557,201.084,458.257,200.958,458.005,200.706z"/>
		<path fill="#333333" d="M469.542,207.798v-5.184h2.016v9.576h-2.016v-1.746c-0.324,0.588-0.771,1.05-1.341,1.386
			c-0.57,0.336-1.185,0.504-1.845,0.504c-1.08,0-1.953-0.33-2.619-0.99c-0.666-0.66-0.999-1.614-0.999-2.862v-5.868h2.016v5.256
			c0,1.764,0.731,2.646,2.196,2.646c0.696,0,1.302-0.231,1.818-0.693C469.285,209.361,469.542,208.686,469.542,207.798z"/>
		<path fill="#333333" d="M481.296,209.328c0,0.912-0.33,1.641-0.99,2.187c-0.66,0.546-1.506,0.819-2.538,0.819
			c-0.696,0-1.419-0.126-2.169-0.378s-1.413-0.606-1.989-1.062l0.972-1.566c1.116,0.84,2.196,1.26,3.24,1.26
			c0.456,0,0.816-0.105,1.08-0.315c0.264-0.21,0.396-0.477,0.396-0.801c0-0.48-0.636-0.912-1.908-1.296
			c-0.096-0.036-0.168-0.06-0.216-0.072c-1.992-0.54-2.988-1.44-2.988-2.7c0-0.888,0.345-1.599,1.035-2.133
			c0.69-0.534,1.587-0.801,2.691-0.801s2.148,0.324,3.132,0.972l-0.756,1.494c-0.78-0.516-1.626-0.774-2.538-0.774
			c-0.48,0-0.87,0.087-1.17,0.261c-0.3,0.174-0.45,0.435-0.45,0.783c0,0.312,0.156,0.54,0.468,0.684
			c0.216,0.108,0.519,0.21,0.909,0.306c0.39,0.096,0.735,0.192,1.035,0.288c0.3,0.096,0.591,0.204,0.873,0.324
			c0.282,0.12,0.585,0.288,0.909,0.504C480.973,207.744,481.296,208.416,481.296,209.328z"/>
		<path fill="#333333" d="M486.066,204.234v4.86c0,0.457,0.12,0.819,0.36,1.089c0.24,0.27,0.576,0.405,1.008,0.405
			s0.846-0.21,1.242-0.63l0.828,1.422c-0.708,0.636-1.491,0.954-2.349,0.954s-1.59-0.297-2.196-0.891
			c-0.606-0.594-0.909-1.395-0.909-2.403v-4.806h-1.206v-1.62h1.206v-3.006h2.016v3.006h2.52v1.62H486.066z"/>
		<path fill="#333333" d="M500.521,212.19h-2.304l-3.312-9.576h2.088l2.376,7.236l2.376-7.236h2.088l2.376,7.236l2.376-7.236h2.088
			l-3.312,9.576h-2.304l-2.268-6.552L500.521,212.19z"/>
		<path fill="#333333" d="M514.47,207.006v5.184h-2.016v-13.338h2.016v5.508c0.288-0.588,0.723-1.05,1.305-1.386
			s1.209-0.504,1.881-0.504c1.08,0,1.953,0.331,2.619,0.99c0.666,0.66,0.999,1.614,0.999,2.862v5.868h-2.016v-5.256
			c0-1.764-0.732-2.646-2.196-2.646c-0.696,0-1.302,0.231-1.818,0.693C514.728,205.443,514.47,206.118,514.47,207.006z"/>
		<path fill="#333333" d="M531.84,212.19h-1.836v-1.278c-0.792,0.948-1.854,1.422-3.186,1.422c-0.996,0-1.821-0.282-2.475-0.846
			c-0.654-0.564-0.981-1.317-0.981-2.259s0.348-1.647,1.044-2.115c0.696-0.468,1.638-0.702,2.826-0.702h2.61v-0.36
			c0-1.271-0.708-1.908-2.124-1.908c-0.888,0-1.812,0.324-2.772,0.972l-0.9-1.26c1.164-0.924,2.484-1.386,3.96-1.386
			c1.128,0,2.049,0.286,2.763,0.855c0.714,0.57,1.071,1.467,1.071,2.691V212.19z M529.824,208.626v-0.81h-2.268
			c-1.452,0-2.178,0.456-2.178,1.368c0,0.468,0.18,0.825,0.54,1.071c0.36,0.246,0.861,0.369,1.503,0.369s1.203-0.18,1.683-0.54
			S529.824,209.238,529.824,208.626z"/>
		<path fill="#333333" d="M537.024,204.234v4.86c0,0.457,0.12,0.819,0.36,1.089c0.24,0.27,0.576,0.405,1.008,0.405
			s0.846-0.21,1.242-0.63l0.828,1.422c-0.708,0.636-1.491,0.954-2.349,0.954s-1.59-0.297-2.196-0.891
			c-0.606-0.594-0.909-1.395-0.909-2.403v-4.806h-1.206v-1.62h1.206v-3.006h2.016v3.006h2.52v1.62H537.024z"/>
		<path fill="#333333" d="M425.425,232.566c-0.9-0.912-1.35-2.112-1.35-3.6c0-1.488,0.461-2.676,1.386-3.564
			c0.924-0.888,2.025-1.332,3.303-1.332c1.278,0,2.307,0.54,3.087,1.62v-5.256h2.016v13.356h-2.016v-1.44
			c-0.744,1.056-1.83,1.584-3.258,1.584C427.381,233.934,426.325,233.478,425.425,232.566z M426.091,229.047
			c0,0.918,0.294,1.665,0.882,2.241c0.588,0.576,1.278,0.864,2.07,0.864s1.464-0.291,2.016-0.873
			c0.552-0.582,0.828-1.329,0.828-2.241c0-0.912-0.276-1.674-0.828-2.286c-0.552-0.612-1.23-0.918-2.034-0.918
			c-0.804,0-1.494,0.306-2.07,0.918C426.379,227.364,426.091,228.129,426.091,229.047z"/>
		<path fill="#333333" d="M444.792,232.503c-0.96,0.954-2.16,1.431-3.6,1.431s-2.64-0.477-3.6-1.431
			c-0.96-0.954-1.44-2.121-1.44-3.501c0-1.38,0.479-2.547,1.44-3.501c0.96-0.954,2.16-1.431,3.6-1.431s2.64,0.477,3.6,1.431
			s1.44,2.121,1.44,3.501C446.233,230.382,445.752,231.549,444.792,232.503z M439.024,231.261c0.57,0.582,1.292,0.873,2.169,0.873
			c0.875,0,1.599-0.291,2.169-0.873c0.57-0.582,0.855-1.335,0.855-2.259c0-0.924-0.285-1.677-0.855-2.259
			c-0.57-0.582-1.293-0.873-2.169-0.873c-0.876,0-1.599,0.291-2.169,0.873c-0.57,0.582-0.855,1.335-0.855,2.259
			C438.169,229.926,438.454,230.679,439.024,231.261z"/>
		<path fill="#333333" d="M457.429,229.884h-7.506c0.048,0.696,0.366,1.257,0.954,1.683c0.588,0.426,1.26,0.639,2.016,0.639
			c1.2,0,2.112-0.378,2.736-1.134l1.152,1.26c-1.032,1.068-2.376,1.602-4.032,1.602c-1.344,0-2.487-0.447-3.429-1.341
			s-1.413-2.094-1.413-3.6s0.479-2.703,1.44-3.591c0.96-0.888,2.091-1.332,3.393-1.332c1.302,0,2.409,0.394,3.321,1.179
			c0.912,0.786,1.368,1.869,1.368,3.249V229.884z M449.923,228.3h5.49c0-0.804-0.252-1.422-0.756-1.854
			c-0.504-0.432-1.125-0.648-1.863-0.648c-0.738,0-1.401,0.225-1.989,0.675C450.217,226.923,449.923,227.532,449.923,228.3z"/>
		<path fill="#333333" d="M466.464,230.928c0,0.912-0.33,1.641-0.99,2.187c-0.66,0.546-1.506,0.819-2.538,0.819
			c-0.696,0-1.419-0.126-2.169-0.378s-1.413-0.606-1.989-1.062l0.972-1.566c1.116,0.84,2.196,1.26,3.24,1.26
			c0.456,0,0.816-0.105,1.08-0.315c0.264-0.21,0.396-0.477,0.396-0.801c0-0.48-0.636-0.912-1.908-1.296
			c-0.096-0.036-0.168-0.06-0.216-0.072c-1.992-0.54-2.988-1.44-2.988-2.7c0-0.888,0.345-1.599,1.035-2.133
			c0.69-0.534,1.587-0.801,2.691-0.801s2.148,0.324,3.132,0.972l-0.756,1.494c-0.78-0.516-1.626-0.774-2.538-0.774
			c-0.48,0-0.87,0.087-1.17,0.261c-0.3,0.174-0.45,0.435-0.45,0.783c0,0.312,0.156,0.54,0.468,0.684
			c0.216,0.108,0.519,0.21,0.909,0.306c0.39,0.096,0.735,0.192,1.035,0.288c0.3,0.096,0.591,0.204,0.873,0.324
			c0.282,0.12,0.585,0.288,0.909,0.504C466.141,229.344,466.464,230.016,466.464,230.928z"/>
		<path fill="#333333" d="M470.767,228.606v5.184h-2.016v-9.576h2.016v1.746c0.324-0.588,0.771-1.05,1.341-1.386
			s1.185-0.504,1.845-0.504c1.08,0,1.953,0.331,2.619,0.99c0.666,0.66,0.999,1.614,0.999,2.862v5.868h-2.016v-5.256
			c0-1.764-0.732-2.646-2.196-2.646c-0.696,0-1.302,0.231-1.818,0.693C471.024,227.043,470.767,227.718,470.767,228.606z"/>
		<path fill="#333333" d="M479.929,223.242c-0.324-0.192-0.486-0.477-0.486-0.855s0.108-0.672,0.324-0.882
			c0.216-0.209,0.486-0.315,0.81-0.315c0.324,0,0.597,0.102,0.819,0.306s0.333,0.471,0.333,0.801c0,0.331-0.108,0.651-0.324,0.963
			l-1.062,1.53h-1.098L479.929,223.242z"/>
		<path fill="#333333" d="M486.462,225.834v4.86c0,0.457,0.12,0.819,0.36,1.089c0.24,0.27,0.576,0.405,1.008,0.405
			s0.846-0.21,1.242-0.63l0.828,1.422c-0.708,0.636-1.491,0.954-2.349,0.954s-1.59-0.297-2.196-0.891
			c-0.606-0.594-0.909-1.395-0.909-2.403v-4.806h-1.206v-1.62h1.206v-3.006h2.016v3.006h2.52v1.62H486.462z"/>
		<path fill="#333333" d="M500.916,233.79h-2.304l-3.312-9.576h2.088l2.376,7.236l2.376-7.236h2.088l2.376,7.236l2.376-7.236h2.088
			l-3.312,9.576h-2.304l-2.268-6.552L500.916,233.79z"/>
		<path fill="#333333" d="M520.734,232.503c-0.96,0.954-2.16,1.431-3.6,1.431s-2.64-0.477-3.6-1.431
			c-0.96-0.954-1.44-2.121-1.44-3.501c0-1.38,0.479-2.547,1.44-3.501c0.96-0.954,2.16-1.431,3.6-1.431s2.64,0.477,3.6,1.431
			s1.44,2.121,1.44,3.501C522.174,230.382,521.694,231.549,520.734,232.503z M514.965,231.261c0.57,0.582,1.292,0.873,2.169,0.873
			c0.875,0,1.599-0.291,2.169-0.873c0.57-0.582,0.855-1.335,0.855-2.259c0-0.924-0.285-1.677-0.855-2.259
			c-0.57-0.582-1.293-0.873-2.169-0.873c-0.876,0-1.599,0.291-2.169,0.873c-0.57,0.582-0.855,1.335-0.855,2.259
			C514.11,229.926,514.395,230.679,514.965,231.261z"/>
		<path fill="#333333" d="M529.482,226.104c-0.996,0-1.746,0.324-2.25,0.972s-0.756,1.518-0.756,2.61v4.104h-2.016v-9.576h2.016
			v1.926c0.324-0.6,0.765-1.092,1.323-1.476c0.558-0.384,1.149-0.582,1.773-0.594l0.018,2.034
			C529.554,226.104,529.518,226.104,529.482,226.104z"/>
		<path fill="#333333" d="M533.622,233.79h-2.016v-13.356h2.016v7.848l3.888-4.068h2.592l-3.636,3.798l3.906,5.778h-2.448
			l-2.844-4.194l-1.458,1.476V233.79z"/>
	</g>
	<polygon fill="none" stroke="#29ABE2" stroke-width="3" stroke-miterlimit="10" points="613.26,378.5 560.784,216.835 
		698.166,116.939 835.549,216.876 783.073,378.5 	"/>
	<circle fill="#29ABE2" cx="697.929" cy="118.803" r="12.996"/>
	<circle fill="#29ABE2" cx="835.929" cy="216.803" r="12.996"/>
	<circle fill="#29ABE2" cx="782.929" cy="377.803" r="12.996"/>
	<circle fill="#29ABE2" cx="611.929" cy="377.803" r="12.996"/>
	<circle fill="#29ABE2" cx="560.929" cy="216.803" r="12.996"/>
	<g>
		<path fill="#FFFFFF" d="M695.331,112.418h4.571V125h-2.016v-10.692h-2.556V112.418z"/>
	</g>
	<g>
		<path fill="#FFFFFF" d="M837.293,215.404c0.36-0.492,0.54-0.99,0.54-1.494s-0.191-0.933-0.576-1.287
			c-0.384-0.354-0.87-0.531-1.458-0.531c-1.032,0-1.89,0.528-2.573,1.584l-1.71-0.99c0.552-0.828,1.16-1.452,1.826-1.872
			s1.524-0.63,2.574-0.63s1.972,0.333,2.764,0.999s1.188,1.575,1.188,2.727c0,0.648-0.168,1.266-0.504,1.854
			c-0.336,0.588-0.954,1.344-1.854,2.268l-2.951,3.006h5.706v2.034h-8.604v-1.8l3.816-3.834
			C836.327,216.574,836.934,215.896,837.293,215.404z"/>
	</g>
	<g>
		<path fill="#FFFFFF" d="M779.579,373.307v-1.89h7.362v1.656l-3.042,3.401c1.152,0.037,2.052,0.399,2.7,1.09
			c0.647,0.689,0.972,1.515,0.972,2.475c0,1.284-0.435,2.292-1.305,3.023c-0.87,0.732-1.989,1.099-3.357,1.099
			s-2.706-0.438-4.014-1.313l0.899-1.711c1.032,0.721,2.112,1.08,3.24,1.08c0.732,0,1.335-0.171,1.81-0.513
			c0.474-0.343,0.711-0.834,0.711-1.476c0-0.643-0.265-1.155-0.792-1.539c-0.528-0.385-1.261-0.576-2.196-0.576
			c-0.468,0-0.918,0.066-1.35,0.197v-1.619l2.916-3.385H779.579z"/>
	</g>
	<g>
		<path fill="#FFFFFF" d="M612.67,378.904v-2.303h2.016v2.303h1.512v1.927h-1.512v3.168h-2.016v-3.168h-5.4v-1.872l4.626-7.542
			h2.322l-4.555,7.487H612.67z"/>
	</g>
	<g>
		<path fill="#FFFFFF" d="M564.326,210.472v1.926h-5.31v3.096c0.528-0.288,1.128-0.432,1.8-0.432c1.176,0,2.19,0.354,3.042,1.062
			c0.852,0.708,1.278,1.668,1.278,2.88s-0.444,2.217-1.332,3.015c-0.888,0.798-1.98,1.197-3.276,1.197
			c-1.692,0-3.042-0.564-4.05-1.692l1.134-1.548c0.096,0.096,0.225,0.21,0.387,0.342c0.162,0.132,0.495,0.309,0.999,0.531
			c0.504,0.222,1.056,0.333,1.656,0.333c0.6,0,1.146-0.18,1.638-0.54c0.492-0.36,0.738-0.885,0.738-1.575s-0.261-1.224-0.783-1.602
			s-1.182-0.567-1.98-0.567c-0.798,0-1.557,0.198-2.277,0.594l-0.9-0.972v-6.048H564.326z"/>
	</g>
</g>
<g id="typo__x5B_not_vectorized_x5D_" display="none">
	<text transform="matrix(1 0 0 1 640.6846 257.6094)" display="inline"><tspan x="0" y="0" fill="#333333" font-family="'Montserrat-Regular'" font-size="32.8448">Design</tspan><tspan x="0" y="21.896" fill="#333333" font-family="'Montserrat-Regular'" font-size="24.6336" letter-spacing="2">Process</tspan></text>
	<text transform="matrix(1 0 0 1 636.8955 74.625)" display="inline"><tspan x="0" y="0" fill="#333333" font-family="'Montserrat-Regular'" font-size="18">Draw the paper</tspan><tspan x="0" y="21.6" fill="#333333" font-family="'Montserrat-Regular'" font-size="18">prototypes</tspan></text>
	<text transform="matrix(1 0 0 1 856.2422 212.1899)" display="inline"><tspan x="0" y="0" fill="#333333" font-family="'Montserrat-Regular'" font-size="18">Proceed to</tspan><tspan x="0" y="21.6" fill="#333333" font-family="'Montserrat-Regular'" font-size="18">user testing</tspan></text>
	<text transform="matrix(1 0 0 1 755.5 411.1504)" display="inline"><tspan x="0" y="0" fill="#333333" font-family="'Montserrat-Regular'" font-size="18">Analyse the</tspan><tspan x="0" y="21.6" fill="#333333" font-family="'Montserrat-Regular'" font-size="18">results</tspan></text>
	<text transform="matrix(1 0 0 1 514.1177 411.1504)" display="inline"><tspan x="0" y="0" fill="#333333" font-family="'Montserrat-Regular'" font-size="18">Implement what</tspan><tspan x="0" y="21.6" fill="#333333" font-family="'Montserrat-Regular'" font-size="18">worked</tspan></text>
	<text transform="matrix(1 0 0 1 430.8975 212.1899)" display="inline"><tspan x="0" y="0" fill="#333333" font-family="'Montserrat-Regular'" font-size="18">Adjust what</tspan><tspan x="-8.1" y="21.6" fill="#333333" font-family="'Montserrat-Regular'" font-size="18">doesnt work</tspan></text>
</g>
</svg>
