<?xml version="1.0" encoding="utf-8"?>
<!-- Generator: Adobe Illustrator 16.0.0, SVG Export Plug-In . SVG Version: 6.00 Build 0)  -->
<!DOCTYPE svg PUBLIC "-//W3C//DTD SVG 1.1//EN" "http://www.w3.org/Graphics/SVG/1.1/DTD/svg11.dtd">
<svg version="1.1" id="Layer_2" xmlns="http://www.w3.org/2000/svg" xmlns:xlink="http://www.w3.org/1999/xlink" x="0px" y="0px"
	 width="167px" height="167px" viewBox="0 0 167 167" enable-background="new 0 0 167 167" xml:space="preserve">
<path fill="#4A90E2" d="M83.724,166C38.672,166,2.02,129.906,2.02,85.54c0-44.365,36.652-80.458,81.705-80.458
	s81.705,36.093,81.705,80.458C165.429,129.906,128.776,166,83.724,166z M83.724,7.082C39.775,7.082,4.02,42.278,4.02,85.54
	c0,43.263,35.755,78.46,79.705,78.46c43.95,0,79.705-35.197,79.705-78.46C163.429,42.278,127.674,7.082,83.724,7.082z"/>
<path fill="#4A90E2" d="M85.139,75.783l-57.81,66.59c6.649,6.397,14.413,11.674,22.982,15.517
	c7.256-12.85,42.585-75.384,43.812-77.107C95.49,78.86,85.139,75.783,85.139,75.783z"/>
<path fill="#4A90E2" d="M93.178,43.733c0,0-11.624,0.523-13.138,0.901c-2.125,1.919-26.587,24.288-26.58,40.751
	c4.586-2.534,26.62-13.982,26.62-13.982L93.178,43.733z"/>
<path fill="#4A90E2" d="M124.398,66.483c0,0,2.339,11.223,2.339,12.761c-1.368,2.5-17.38,31.34-33.591,35.379
	c1.368-5,7.227-28.842,7.227-28.842L124.398,66.483z"/>
<path fill="#4A90E2" d="M149.053,0.025c0,0-48.68,10.576-71.725,72.297c14.648,10.767,22.849,16.92,22.849,16.92
	S149.886,56.555,149.053,0.025z"/>
</svg>
