<?xml version="1.0" encoding="utf-8"?>
<!-- Generator: Adobe Illustrator 16.0.0, SVG Export Plug-In . SVG Version: 6.00 Build 0)  -->
<!DOCTYPE svg PUBLIC "-//W3C//DTD SVG 1.1//EN" "http://www.w3.org/Graphics/SVG/1.1/DTD/svg11.dtd">
<svg version="1.1" xmlns="http://www.w3.org/2000/svg" xmlns:xlink="http://www.w3.org/1999/xlink" x="0px" y="0px" width="167px"
	 height="167px" viewBox="0 0 167 167" enable-background="new 0 0 167 167" xml:space="preserve">
<g id="Layer_3">
	<circle fill="none" stroke="#4A90E2" stroke-miterlimit="10" cx="83.593" cy="83.814" r="80.656"/>
</g>
<g id="Layer_1">
	<path fill="#4A90E2" d="M149.52,47.423l-91.456,96.602h79.174c4.6-4.102,8.719-8.725,12.281-13.773V47.423z M135.52,131.025H92.273
		l43.246-48.126V131.025z"/>
	<g id="crayon">
		<path fill="#4A90E2" d="M17.52,130.047c1.956,2.79,4.067,5.463,6.352,7.979h2.648v-73h-9V130.047z"/>
		<path fill="#4A90E2" d="M24.878,57.815l-3.026-7.13l-3.027,7.17l-1.305,7.17h4.332h4.537L24.878,57.815z M21.815,54.025h-1.059
			l0.53-1.057l0.529-1.111l0.53,1.084l0.529,1.084H21.815z"/>
	</g>
	<rect x="37.02" y="23.525" fill="none" stroke="#4A90E2" stroke-miterlimit="10" width="91" height="120"/>
	<rect x="51.52" y="33.025" fill="#4A90E2" width="18" height="8"/>
	<rect x="51.52" y="94.025" fill="#4A90E2" width="41" height="4"/>
	<rect x="51.52" y="100.025" fill="#4A90E2" width="41" height="4"/>
	<rect x="51.52" y="106.025" fill="#4A90E2" width="41" height="4"/>
	<rect x="51.52" y="113.025" fill="#4A90E2" width="41" height="4"/>
	<rect x="74.52" y="33.025" fill="#4A90E2" width="18" height="8"/>
	<rect x="97.52" y="33.025" fill="#4A90E2" width="18" height="8"/>
	<g>
		<path fill="#4A90E2" d="M110.52,55.025v29h-57v-29H110.52 M113.52,52.025h-63v35h63V52.025L113.52,52.025z"/>
	</g>
	<g>
		<path fill="#4A90E2" d="M68.52,123.025v7h-14v-7H68.52 M70.52,121.025h-18v11h18V121.025L70.52,121.025z"/>
	</g>
</g>
</svg>
